<mxfile host="app.diagrams.net" modified="2023-08-13T23:18:05.507Z" agent="Mozilla/5.0 (Windows NT 10.0; Win64; x64) AppleWebKit/537.36 (KHTML, like Gecko) Chrome/115.0.0.0 Safari/537.36" version="21.6.8" etag="tlXMmsY6XhqEwrNdeCAj" type="github">
  <diagram name="Page-1" id="g-E1INYRR47GsdzT1QRk">
    <mxGraphModel>
      <root>
        <mxCell id="0" />
        <mxCell id="1" parent="0" />
      </root>
    </mxGraphModel>
  </diagram>
</mxfile>
